<svg width="48" height="48" xmlns="http://www.w3.org/2000/svg" viewBox="0 0 48 48">
  <defs>
    <linearGradient id="grad1" x1="0" y1="0" x2="1" y2="1">
      <stop offset="0" style="stop-color:#667eea;stop-opacity:1" />
      <stop offset="1" style="stop-color:#764ba2;stop-opacity:1" />
    </linearGradient>
  </defs>
  <rect width="48" height="48" rx="8" fill="url(#grad1)"/>
  <!-- Brain icon scaled down -->
  <g transform="translate(12, 12)">
    <circle cx="12" cy="12" r="10" fill="white" opacity="0.9"/>
    <path d="M12 4 C8 4 4 8 4 12 C4 16 8 20 12 20 C16 20 20 16 20 12 C20 8 16 4 12 4 Z M12 6 C15 6 18 9 18 12 C18 15 15 18 12 18 C9 18 6 15 6 12 C6 9 9 6 12 6 Z" fill="#667eea"/>
    <circle cx="10" cy="11" r="1" fill="#667eea"/>
    <circle cx="14" cy="11" r="1" fill="#667eea"/>
  </g>
</svg>
